# Blender v3.1.2 OBJ File: ''
# www.blender.org
mtllib 10163_Avocado_v2_L3 optimo.mtl
o 10163_Avocado_v2_L3
v 0.543136 0.688226 18.473095
v -0.994774 0.810824 18.411718
v 0.107228 -3.004189 16.833643
v 2.799732 -1.274947 16.259525
v 1.885462 0.766070 17.372051
v 0.220643 2.708127 16.753736
v -2.277583 1.543117 16.765480
v -3.202288 -0.811187 16.573503
v 0.306360 -5.985876 10.762232
v 2.463580 -3.625054 14.392242
v 4.157330 -2.774556 12.917653
v -3.726742 3.442620 11.762225
v -2.151851 4.345043 12.045914
v -5.150509 0.374929 12.631248
v -5.423741 -1.410932 11.916079
v 3.123081 -5.801393 7.727661
v 4.591796 -4.190006 9.329798
v 5.674550 -1.444191 10.188952
v 3.072437 4.548448 8.758464
v 2.719305 2.699203 14.627253
v 0.313619 5.037006 11.119053
v -0.558157 5.399264 5.699289
v -2.549284 4.936409 5.980595
v -4.045262 2.399200 3.091296
v -4.868040 2.957599 6.824360
v -6.093735 0.146944 6.896540
v -5.923074 -2.597375 6.578038
v -1.563666 -6.031414 4.264233
v 0.030122 -5.109571 1.781481
v 0.569444 -6.582219 6.273412
v 3.183629 -4.827077 3.160492
v 4.693862 -4.226901 5.046428
v 5.788700 -1.743371 4.957116
v 4.575220 3.117063 5.796134
v 2.275958 4.640813 4.627919
v -1.283138 3.244073 1.328891
v -5.029099 -0.607241 2.465767
v 3.399597 -2.869909 1.299420
v 4.002464 -0.682287 1.525455
v 2.650200 3.224114 2.264727
v -0.651119 2.178959 0.562223
v -0.024163 -0.894507 0.037421
v -0.194006 -3.305899 0.499232
v 2.117478 -1.846862 0.358703
v -1.295066 -0.641916 18.462782
v -2.801180 -2.809865 15.455008
v 3.992516 1.359995 13.616160
v -4.607042 -3.276463 11.848852
v -2.685836 -5.969881 8.176832
v -2.163394 -4.870998 12.793520
v 5.379810 1.884137 8.900848
v -4.594553 -4.626359 6.573421
v -2.937982 -2.848035 1.199511
v -4.151826 -3.931654 3.458590
v 1.612041 1.419603 0.535906
v 5.236675 0.976911 4.188146
v 1.461501 -1.352548 17.583878
v -2.653069 -1.007152 0.436142
vt 0.375902 0.727651
vt 0.500852 0.737046
vt 0.256991 0.777595
vt 0.924703 0.672908
vt 0.887344 0.770048
vt 0.834728 0.597442
vt 0.244234 0.635026
vt 0.128265 0.584154
vt 0.304089 0.466288
vt 0.227579 0.450383
vt 0.372726 0.620104
vt 0.441578 0.482726
vt 0.473486 0.625399
vt 0.585907 0.601541
vt 0.744913 0.686358
vt 0.661631 0.508306
vt 0.893018 0.549777
vt 0.359782 0.453001
vt 0.315569 0.283661
vt 0.382504 0.299475
vt 0.652676 0.359713
vt 0.732637 0.457594
vt 0.804907 0.356876
vt 0.859879 0.419407
vt 0.155585 0.380322
vt 0.052948 0.400205
vt 0.097858 0.282278
vt 0.483104 0.160575
vt 0.530748 0.294253
vt 0.461026 0.303932
vt 0.586118 0.190249
vt 0.737691 0.299715
vt 0.819036 0.185126
vt 0.860211 0.260794
vt 0.179288 0.245565
vt 0.253220 0.272100
vt 0.296838 0.134154
vt 0.512414 0.069104
vt 0.593500 0.106735
vt 0.868299 0.119853
vt 0.926603 0.258197
vt 0.953891 0.126367
vt 0.142031 0.155195
vt 0.729648 0.137523
vt 0.727952 0.066813
vt 0.886762 0.064527
vt 0.807269 0.025100
vt 0.991100 0.781952
vt 0.940150 0.447196
vt 0.058267 0.562093
vt 0.005700 0.611614
vt 0.005700 0.551119
vt 0.561054 0.468034
vt 0.596033 0.299815
vt 0.983422 0.380349
vt 0.991100 0.494000
vt 0.682185 0.223387
vt 0.987498 0.220076
vt 0.030265 0.222242
vt 0.024411 0.108842
vt 0.015449 0.060843
vt 0.144944 0.069712
vt 0.882040 0.945672
vt 0.918763 0.881539
vt 0.937556 0.913020
vt 0.856108 0.902869
vt 0.882900 0.857600
vt 0.200182 0.025175
vt 0.079942 0.715998
vt 0.501953 0.460086
vt 0.381171 0.180254
vt 0.280029 0.082534
vt 0.519033 0.025163
vn -0.3259 0.3980 0.8576
vn -0.3437 -0.2452 0.9065
vn 0.3193 0.2466 0.9150
vn 0.7865 -0.2258 0.5748
vn 0.4824 -0.3694 0.7943
vn 0.4933 -0.7315 0.4708
vn 0.0876 0.8073 0.5836
vn 0.6069 0.6689 0.4293
vn -0.3499 0.8908 0.2899
vn 0.0875 0.9698 0.2277
vn -0.6181 0.5401 0.5711
vn -0.9186 0.2271 0.3233
vn -0.7882 -0.1177 0.6041
vn -0.5764 -0.6154 0.5377
vn 0.0533 -0.7429 0.6673
vn -0.3543 -0.8524 0.3846
vn 0.8051 -0.4338 0.4045
vn -0.6956 0.6707 0.2575
vn -0.4501 0.8822 -0.1383
vn -0.8157 0.5751 -0.0626
vn -0.4146 -0.9045 0.1000
vn 0.0914 -0.9528 0.2894
vn 0.4863 -0.8711 0.0682
vn 0.7687 -0.6118 0.1867
vn 0.5150 0.8505 0.1068
vn 0.9098 0.3963 0.1233
vn 0.7778 0.6077 -0.1607
vn -0.8382 0.0476 -0.5433
vn -0.9537 -0.2929 -0.0688
vn -0.9799 0.1928 -0.0503
vn -0.6817 -0.5909 -0.4315
vn 0.0978 -0.9916 -0.0852
vn 0.5000 -0.7547 -0.4248
vn 0.7866 -0.5877 -0.1897
vn 0.3634 0.8877 -0.2825
vn -0.0417 0.9842 -0.1719
vn -0.2459 0.6843 -0.6865
vn -0.4393 0.0034 -0.8984
vn -0.5085 -0.4566 -0.7301
vn 0.5851 -0.3918 -0.7100
vn 0.9669 -0.1459 -0.2093
vn 0.7284 0.0834 -0.6801
vn 0.4744 0.6538 -0.5895
vn -0.0096 -0.7779 -0.6283
vn -0.0295 -0.4408 -0.8971
vn 0.3146 -0.1674 -0.9344
vn -0.0102 -0.0075 -0.9999
vn 0.6767 0.3079 0.6688
vn 0.9695 -0.1233 0.2120
vn 0.8726 0.2898 0.3932
vn -0.7578 -0.5816 0.2959
vn -0.7236 -0.6880 -0.0557
vn -0.2862 -0.9050 -0.3147
vn 0.8944 0.2938 -0.3371
vn 0.3153 0.3407 -0.8857
vn -0.9350 -0.2218 0.2767
vn -0.7035 0.5259 -0.4780
vn -0.0984 0.4172 -0.9035
usemtl 10163_Avocado_v02
s 1
f 2/1/1 45/2/2 1/3/3
f 4/4/4 57/5/5 10/6/6
f 6/7/7 1/3/3 20/8/8
f 13/9/9 6/7/7 21/10/10
f 6/7/7 7/11/11 2/1/1
f 6/7/7 13/9/9 7/11/11
f 14/12/12 8/13/13 7/11/11
f 45/2/2 8/13/13 46/14/14
f 3/15/15 46/14/14 50/16/16
f 4/4/4 10/6/6 11/17/17
f 12/18/18 13/9/9 23/19/19
f 25/20/20 14/12/12 12/18/18
f 49/21/21 9/22/22 50/16/16
f 10/6/6 9/22/22 16/23/23
f 11/17/17 10/6/6 17/24/24
f 19/25/25 51/26/26 34/27/27
f 20/8/8 21/10/10 6/7/7
f 23/19/19 25/20/20 12/18/18
f 37/28/28 27/29/29 26/30/30
f 27/29/29 37/28/28 54/31/31
f 16/23/23 30/32/32 31/33/33
f 31/33/33 32/34/34 16/23/23
f 17/24/24 16/23/23 32/34/34
f 34/27/27 35/35/35 19/25/25
f 19/25/25 22/36/36 21/10/10
f 22/36/36 36/37/37 23/19/19
f 37/28/28 36/37/37 58/38/38
f 54/31/31 37/28/28 53/39/39
f 32/34/34 31/33/33 38/40/40
f 32/34/34 38/40/40 33/41/41
f 39/42/42 33/41/41 38/40/40
f 36/37/37 35/35/35 40/43/43
f 29/44/44 43/45/45 44/46/46
f 42/47/47 44/46/46 43/45/45
f 7/11/11 8/13/13 45/2/2 2/1/1
f 57/5/5 4/4/4 5/48/48
f 45/2/2 46/14/14 3/15/15
f 18/49/49 4/4/4 11/17/17
f 47/50/50 4/51/4 18/52/49
f 46/14/14 48/53/51 50/16/16
f 52/54/52 49/21/21 48/53/51
f 18/49/49 51/55/26 47/56/50
f 54/31/31 52/54/52 27/29/29
f 54/31/31 28/57/53 52/54/52
f 49/21/21 52/54/52 28/57/53
f 33/41/41 56/58/54 51/55/26
f 56/59/54 40/43/43 34/27/27
f 39/60/42 44/61/46 55/62/55
f 1/63/3 57/64/5 5/65/48
f 57/64/5 45/66/2 3/67/15
f 44/61/46 42/68/47 55/62/55
f 43/45/45 58/38/38 42/47/47
f 6/7/7 2/1/1 1/3/3
f 20/8/8 1/3/3 5/69/48
f 7/11/11 13/9/9 12/18/18
f 12/18/18 14/12/12 7/11/11
f 15/70/56 48/53/51 46/14/14 8/13/13
f 14/12/12 15/70/56 8/13/13
f 21/10/10 22/36/36 23/19/19 13/9/9
f 50/16/16 9/22/22 3/15/15
f 10/6/6 3/15/15 9/22/22
f 5/69/48 47/50/50 20/8/8
f 15/70/56 14/12/12 26/30/30 27/29/29
f 25/20/20 26/30/30 14/12/12
f 26/30/30 25/20/20 24/71/57 37/28/28
f 49/21/21 30/32/32 9/22/22
f 16/23/23 9/22/22 30/32/32
f 17/24/24 10/6/6 16/23/23
f 17/24/24 18/49/49 11/17/17
f 20/8/8 51/26/26 19/25/25
f 47/50/50 51/26/26 20/8/8
f 20/8/8 19/25/25 21/10/10
f 23/19/19 24/71/57 25/20/20
f 18/49/49 17/24/24 32/34/34 33/41/41
f 28/57/53 29/44/44 30/32/32
f 30/32/32 49/21/21 28/57/53
f 31/33/33 30/32/32 29/44/44
f 48/53/51 15/70/56 27/29/29 52/54/52
f 40/43/43 35/35/35 34/27/27
f 19/25/25 35/35/35 22/36/36
f 23/19/19 36/37/37 24/71/57
f 37/28/28 24/71/57 36/37/37
f 53/39/39 37/28/28 58/38/38
f 53/39/39 43/45/45 29/44/44
f 55/62/55 41/72/58 40/43/43
f 40/43/43 41/72/58 36/37/37
f 36/37/37 22/36/36 35/35/35
f 58/38/38 36/37/37 41/72/58
f 39/42/42 38/40/40 44/46/46
f 42/73/47 41/72/58 55/62/55
f 3/15/15 10/6/6 57/5/5
f 5/69/48 4/51/4 47/50/50
f 53/39/39 29/44/44 28/57/53 54/31/31
f 48/53/51 49/21/21 50/16/16
f 18/49/49 33/41/41 51/55/26
f 51/26/26 56/59/54 34/27/27
f 29/44/44 38/40/40 31/33/33
f 33/41/41 39/42/42 56/58/54
f 55/62/55 40/43/43 39/60/42
f 56/59/54 39/60/42 40/43/43
f 58/38/38 43/45/45 53/39/39
f 38/40/40 29/44/44 44/46/46
f 1/63/3 45/66/2 57/64/5
f 41/72/58 42/73/47 58/38/38
